<mxfile host="65bd71144e">
    <diagram id="qhP7KjJMfT59o1gSOzxB" name="Page-1">
        <mxGraphModel dx="1584" dy="640" grid="1" gridSize="10" guides="1" tooltips="1" connect="1" arrows="1" fold="1" page="1" pageScale="1" pageWidth="827" pageHeight="1169" math="0" shadow="0">
            <root>
                <mxCell id="0"/>
                <mxCell id="1" parent="0"/>
                <mxCell id="AIPdWYYq4T8G4I1ffe9C-1" value="Product" style="swimlane;fontStyle=1;align=center;verticalAlign=top;childLayout=stackLayout;horizontal=1;startSize=26;horizontalStack=0;resizeParent=1;resizeParentMax=0;resizeLast=0;collapsible=1;marginBottom=0;" parent="1" vertex="1">
                    <mxGeometry x="180" y="420" width="230" height="546" as="geometry"/>
                </mxCell>
                <mxCell id="AIPdWYYq4T8G4I1ffe9C-2" value="id: ID" style="text;strokeColor=none;fillColor=none;align=left;verticalAlign=top;spacingLeft=4;spacingRight=4;overflow=hidden;rotatable=0;points=[[0,0.5],[1,0.5]];portConstraint=eastwest;" parent="AIPdWYYq4T8G4I1ffe9C-1" vertex="1">
                    <mxGeometry y="26" width="230" height="26" as="geometry"/>
                </mxCell>
                <mxCell id="njmQkS_udpOmSkrCVEzm-1" value="name: string" style="text;strokeColor=none;fillColor=none;align=left;verticalAlign=top;spacingLeft=4;spacingRight=4;overflow=hidden;rotatable=0;points=[[0,0.5],[1,0.5]];portConstraint=eastwest;" parent="AIPdWYYq4T8G4I1ffe9C-1" vertex="1">
                    <mxGeometry y="52" width="230" height="26" as="geometry"/>
                </mxCell>
                <mxCell id="AIPdWYYq4T8G4I1ffe9C-5" value="description: string" style="text;strokeColor=none;fillColor=none;align=left;verticalAlign=top;spacingLeft=4;spacingRight=4;overflow=hidden;rotatable=0;points=[[0,0.5],[1,0.5]];portConstraint=eastwest;" parent="AIPdWYYq4T8G4I1ffe9C-1" vertex="1">
                    <mxGeometry y="78" width="230" height="26" as="geometry"/>
                </mxCell>
                <mxCell id="AIPdWYYq4T8G4I1ffe9C-6" value="price: float" style="text;strokeColor=none;fillColor=none;align=left;verticalAlign=top;spacingLeft=4;spacingRight=4;overflow=hidden;rotatable=0;points=[[0,0.5],[1,0.5]];portConstraint=eastwest;" parent="AIPdWYYq4T8G4I1ffe9C-1" vertex="1">
                    <mxGeometry y="104" width="230" height="26" as="geometry"/>
                </mxCell>
                <mxCell id="AIPdWYYq4T8G4I1ffe9C-8" value="sales: int" style="text;strokeColor=none;fillColor=none;align=left;verticalAlign=top;spacingLeft=4;spacingRight=4;overflow=hidden;rotatable=0;points=[[0,0.5],[1,0.5]];portConstraint=eastwest;" parent="AIPdWYYq4T8G4I1ffe9C-1" vertex="1">
                    <mxGeometry y="130" width="230" height="26" as="geometry"/>
                </mxCell>
                <mxCell id="AIPdWYYq4T8G4I1ffe9C-9" value="notation: float" style="text;strokeColor=none;fillColor=none;align=left;verticalAlign=top;spacingLeft=4;spacingRight=4;overflow=hidden;rotatable=0;points=[[0,0.5],[1,0.5]];portConstraint=eastwest;" parent="AIPdWYYq4T8G4I1ffe9C-1" vertex="1">
                    <mxGeometry y="156" width="230" height="26" as="geometry"/>
                </mxCell>
                <mxCell id="AIPdWYYq4T8G4I1ffe9C-12" value="stock: int" style="text;strokeColor=none;fillColor=none;align=left;verticalAlign=top;spacingLeft=4;spacingRight=4;overflow=hidden;rotatable=0;points=[[0,0.5],[1,0.5]];portConstraint=eastwest;" parent="AIPdWYYq4T8G4I1ffe9C-1" vertex="1">
                    <mxGeometry y="182" width="230" height="26" as="geometry"/>
                </mxCell>
                <mxCell id="AIPdWYYq4T8G4I1ffe9C-11" value="comments: [Comment]" style="text;strokeColor=none;fillColor=none;align=left;verticalAlign=top;spacingLeft=4;spacingRight=4;overflow=hidden;rotatable=0;points=[[0,0.5],[1,0.5]];portConstraint=eastwest;" parent="AIPdWYYq4T8G4I1ffe9C-1" vertex="1">
                    <mxGeometry y="208" width="230" height="26" as="geometry"/>
                </mxCell>
                <mxCell id="AIPdWYYq4T8G4I1ffe9C-13" value="seller: string" style="text;strokeColor=none;fillColor=none;align=left;verticalAlign=top;spacingLeft=4;spacingRight=4;overflow=hidden;rotatable=0;points=[[0,0.5],[1,0.5]];portConstraint=eastwest;" parent="AIPdWYYq4T8G4I1ffe9C-1" vertex="1">
                    <mxGeometry y="234" width="230" height="26" as="geometry"/>
                </mxCell>
                <mxCell id="FD3mDdKUtWkHjg0hF5EI-1" value="release: string" style="text;strokeColor=none;fillColor=none;align=left;verticalAlign=top;spacingLeft=4;spacingRight=4;overflow=hidden;rotatable=0;points=[[0,0.5],[1,0.5]];portConstraint=eastwest;" parent="AIPdWYYq4T8G4I1ffe9C-1" vertex="1">
                    <mxGeometry y="260" width="230" height="26" as="geometry"/>
                </mxCell>
                <mxCell id="AIPdWYYq4T8G4I1ffe9C-22" value="author: string" style="text;strokeColor=none;fillColor=none;align=left;verticalAlign=top;spacingLeft=4;spacingRight=4;overflow=hidden;rotatable=0;points=[[0,0.5],[1,0.5]];portConstraint=eastwest;" parent="AIPdWYYq4T8G4I1ffe9C-1" vertex="1">
                    <mxGeometry y="286" width="230" height="26" as="geometry"/>
                </mxCell>
                <mxCell id="tGBcgF5zEhU3mlBbZxo8-1" value="editor: string" style="text;strokeColor=none;fillColor=none;align=left;verticalAlign=top;spacingLeft=4;spacingRight=4;overflow=hidden;rotatable=0;points=[[0,0.5],[1,0.5]];portConstraint=eastwest;" parent="AIPdWYYq4T8G4I1ffe9C-1" vertex="1">
                    <mxGeometry y="312" width="230" height="26" as="geometry"/>
                </mxCell>
                <mxCell id="AIPdWYYq4T8G4I1ffe9C-14" value="minPlayers: int" style="text;strokeColor=none;fillColor=none;align=left;verticalAlign=top;spacingLeft=4;spacingRight=4;overflow=hidden;rotatable=0;points=[[0,0.5],[1,0.5]];portConstraint=eastwest;" parent="AIPdWYYq4T8G4I1ffe9C-1" vertex="1">
                    <mxGeometry y="338" width="230" height="26" as="geometry"/>
                </mxCell>
                <mxCell id="AIPdWYYq4T8G4I1ffe9C-28" value="maxPlayers: int" style="text;strokeColor=none;fillColor=none;align=left;verticalAlign=top;spacingLeft=4;spacingRight=4;overflow=hidden;rotatable=0;points=[[0,0.5],[1,0.5]];portConstraint=eastwest;" parent="AIPdWYYq4T8G4I1ffe9C-1" vertex="1">
                    <mxGeometry y="364" width="230" height="26" as="geometry"/>
                </mxCell>
                <mxCell id="AIPdWYYq4T8G4I1ffe9C-15" value="duration: int" style="text;strokeColor=none;fillColor=none;align=left;verticalAlign=top;spacingLeft=4;spacingRight=4;overflow=hidden;rotatable=0;points=[[0,0.5],[1,0.5]];portConstraint=eastwest;" parent="AIPdWYYq4T8G4I1ffe9C-1" vertex="1">
                    <mxGeometry y="390" width="230" height="26" as="geometry"/>
                </mxCell>
                <mxCell id="AIPdWYYq4T8G4I1ffe9C-16" value="recommendedAge: int" style="text;strokeColor=none;fillColor=none;align=left;verticalAlign=top;spacingLeft=4;spacingRight=4;overflow=hidden;rotatable=0;points=[[0,0.5],[1,0.5]];portConstraint=eastwest;" parent="AIPdWYYq4T8G4I1ffe9C-1" vertex="1">
                    <mxGeometry y="416" width="230" height="26" as="geometry"/>
                </mxCell>
                <mxCell id="AIPdWYYq4T8G4I1ffe9C-17" value="expeditionTime: int" style="text;strokeColor=none;fillColor=none;align=left;verticalAlign=top;spacingLeft=4;spacingRight=4;overflow=hidden;rotatable=0;points=[[0,0.5],[1,0.5]];portConstraint=eastwest;" parent="AIPdWYYq4T8G4I1ffe9C-1" vertex="1">
                    <mxGeometry y="442" width="230" height="26" as="geometry"/>
                </mxCell>
                <mxCell id="AIPdWYYq4T8G4I1ffe9C-19" value="complexity: float" style="text;strokeColor=none;fillColor=none;align=left;verticalAlign=top;spacingLeft=4;spacingRight=4;overflow=hidden;rotatable=0;points=[[0,0.5],[1,0.5]];portConstraint=eastwest;" parent="AIPdWYYq4T8G4I1ffe9C-1" vertex="1">
                    <mxGeometry y="468" width="230" height="26" as="geometry"/>
                </mxCell>
                <mxCell id="AIPdWYYq4T8G4I1ffe9C-20" value="concentration: float" style="text;strokeColor=none;fillColor=none;align=left;verticalAlign=top;spacingLeft=4;spacingRight=4;overflow=hidden;rotatable=0;points=[[0,0.5],[1,0.5]];portConstraint=eastwest;" parent="AIPdWYYq4T8G4I1ffe9C-1" vertex="1">
                    <mxGeometry y="494" width="230" height="26" as="geometry"/>
                </mxCell>
                <mxCell id="AIPdWYYq4T8G4I1ffe9C-21" value="ambience: float" style="text;strokeColor=none;fillColor=none;align=left;verticalAlign=top;spacingLeft=4;spacingRight=4;overflow=hidden;rotatable=0;points=[[0,0.5],[1,0.5]];portConstraint=eastwest;" parent="AIPdWYYq4T8G4I1ffe9C-1" vertex="1">
                    <mxGeometry y="520" width="230" height="26" as="geometry"/>
                </mxCell>
                <mxCell id="AIPdWYYq4T8G4I1ffe9C-23" value="Promotion" style="swimlane;fontStyle=0;childLayout=stackLayout;horizontal=1;startSize=26;fillColor=none;horizontalStack=0;resizeParent=1;resizeParentMax=0;resizeLast=0;collapsible=1;marginBottom=0;" parent="1" vertex="1">
                    <mxGeometry x="530" y="420" width="140" height="182" as="geometry"/>
                </mxCell>
                <mxCell id="njmQkS_udpOmSkrCVEzm-2" value="id: ID" style="text;strokeColor=none;fillColor=none;align=left;verticalAlign=top;spacingLeft=4;spacingRight=4;overflow=hidden;rotatable=0;points=[[0,0.5],[1,0.5]];portConstraint=eastwest;" parent="AIPdWYYq4T8G4I1ffe9C-23" vertex="1">
                    <mxGeometry y="26" width="140" height="26" as="geometry"/>
                </mxCell>
                <mxCell id="AIPdWYYq4T8G4I1ffe9C-24" value="type:Â  PromotionType" style="text;strokeColor=none;fillColor=none;align=left;verticalAlign=top;spacingLeft=4;spacingRight=4;overflow=hidden;rotatable=0;points=[[0,0.5],[1,0.5]];portConstraint=eastwest;" parent="AIPdWYYq4T8G4I1ffe9C-23" vertex="1">
                    <mxGeometry y="52" width="140" height="26" as="geometry"/>
                </mxCell>
                <mxCell id="AIPdWYYq4T8G4I1ffe9C-32" value="value: float" style="text;strokeColor=none;fillColor=none;align=left;verticalAlign=top;spacingLeft=4;spacingRight=4;overflow=hidden;rotatable=0;points=[[0,0.5],[1,0.5]];portConstraint=eastwest;" parent="AIPdWYYq4T8G4I1ffe9C-23" vertex="1">
                    <mxGeometry y="78" width="140" height="26" as="geometry"/>
                </mxCell>
                <mxCell id="AIPdWYYq4T8G4I1ffe9C-33" value="expirationDate: string" style="text;strokeColor=none;fillColor=none;align=left;verticalAlign=top;spacingLeft=4;spacingRight=4;overflow=hidden;rotatable=0;points=[[0,0.5],[1,0.5]];portConstraint=eastwest;" parent="AIPdWYYq4T8G4I1ffe9C-23" vertex="1">
                    <mxGeometry y="104" width="140" height="26" as="geometry"/>
                </mxCell>
                <mxCell id="njmQkS_udpOmSkrCVEzm-10" value="product: [Product]" style="text;strokeColor=none;fillColor=none;align=left;verticalAlign=top;spacingLeft=4;spacingRight=4;overflow=hidden;rotatable=0;points=[[0,0.5],[1,0.5]];portConstraint=eastwest;" parent="AIPdWYYq4T8G4I1ffe9C-23" vertex="1">
                    <mxGeometry y="130" width="140" height="26" as="geometry"/>
                </mxCell>
                <mxCell id="FD3mDdKUtWkHjg0hF5EI-2" value="releaseDate: string" style="text;strokeColor=none;fillColor=none;align=left;verticalAlign=top;spacingLeft=4;spacingRight=4;overflow=hidden;rotatable=0;points=[[0,0.5],[1,0.5]];portConstraint=eastwest;" parent="AIPdWYYq4T8G4I1ffe9C-23" vertex="1">
                    <mxGeometry y="156" width="140" height="26" as="geometry"/>
                </mxCell>
                <mxCell id="AIPdWYYq4T8G4I1ffe9C-29" value="PromotionType" style="swimlane;fontStyle=0;childLayout=stackLayout;horizontal=1;startSize=26;fillColor=none;horizontalStack=0;resizeParent=1;resizeParentMax=0;resizeLast=0;collapsible=1;marginBottom=0;" parent="1" vertex="1">
                    <mxGeometry x="740" y="446" width="140" height="78" as="geometry"/>
                </mxCell>
                <mxCell id="AIPdWYYq4T8G4I1ffe9C-30" value="FLAT" style="text;strokeColor=none;fillColor=none;align=left;verticalAlign=top;spacingLeft=4;spacingRight=4;overflow=hidden;rotatable=0;points=[[0,0.5],[1,0.5]];portConstraint=eastwest;" parent="AIPdWYYq4T8G4I1ffe9C-29" vertex="1">
                    <mxGeometry y="26" width="140" height="26" as="geometry"/>
                </mxCell>
                <mxCell id="AIPdWYYq4T8G4I1ffe9C-31" value="PERCENT" style="text;strokeColor=none;fillColor=none;align=left;verticalAlign=top;spacingLeft=4;spacingRight=4;overflow=hidden;rotatable=0;points=[[0,0.5],[1,0.5]];portConstraint=eastwest;" parent="AIPdWYYq4T8G4I1ffe9C-29" vertex="1">
                    <mxGeometry y="52" width="140" height="26" as="geometry"/>
                </mxCell>
                <mxCell id="AIPdWYYq4T8G4I1ffe9C-38" value="comment" style="swimlane;fontStyle=0;childLayout=stackLayout;horizontal=1;startSize=26;fillColor=none;horizontalStack=0;resizeParent=1;resizeParentMax=0;resizeLast=0;collapsible=1;marginBottom=0;" parent="1" vertex="1">
                    <mxGeometry x="-70" y="770" width="140" height="156" as="geometry"/>
                </mxCell>
                <mxCell id="njmQkS_udpOmSkrCVEzm-3" value="id: ID" style="text;strokeColor=none;fillColor=none;align=left;verticalAlign=top;spacingLeft=4;spacingRight=4;overflow=hidden;rotatable=0;points=[[0,0.5],[1,0.5]];portConstraint=eastwest;" parent="AIPdWYYq4T8G4I1ffe9C-38" vertex="1">
                    <mxGeometry y="26" width="140" height="26" as="geometry"/>
                </mxCell>
                <mxCell id="AIPdWYYq4T8G4I1ffe9C-39" value="buyer: Buyer" style="text;strokeColor=none;fillColor=none;align=left;verticalAlign=top;spacingLeft=4;spacingRight=4;overflow=hidden;rotatable=0;points=[[0,0.5],[1,0.5]];portConstraint=eastwest;" parent="AIPdWYYq4T8G4I1ffe9C-38" vertex="1">
                    <mxGeometry y="52" width="140" height="26" as="geometry"/>
                </mxCell>
                <mxCell id="AIPdWYYq4T8G4I1ffe9C-40" value="date: string" style="text;strokeColor=none;fillColor=none;align=left;verticalAlign=top;spacingLeft=4;spacingRight=4;overflow=hidden;rotatable=0;points=[[0,0.5],[1,0.5]];portConstraint=eastwest;" parent="AIPdWYYq4T8G4I1ffe9C-38" vertex="1">
                    <mxGeometry y="78" width="140" height="26" as="geometry"/>
                </mxCell>
                <mxCell id="AIPdWYYq4T8G4I1ffe9C-41" value="message: string" style="text;strokeColor=none;fillColor=none;align=left;verticalAlign=top;spacingLeft=4;spacingRight=4;overflow=hidden;rotatable=0;points=[[0,0.5],[1,0.5]];portConstraint=eastwest;" parent="AIPdWYYq4T8G4I1ffe9C-38" vertex="1">
                    <mxGeometry y="104" width="140" height="26" as="geometry"/>
                </mxCell>
                <mxCell id="AIPdWYYq4T8G4I1ffe9C-42" value="notation: float" style="text;strokeColor=none;fillColor=none;align=left;verticalAlign=top;spacingLeft=4;spacingRight=4;overflow=hidden;rotatable=0;points=[[0,0.5],[1,0.5]];portConstraint=eastwest;" parent="AIPdWYYq4T8G4I1ffe9C-38" vertex="1">
                    <mxGeometry y="130" width="140" height="26" as="geometry"/>
                </mxCell>
                <mxCell id="AIPdWYYq4T8G4I1ffe9C-43" value="buyer" style="swimlane;fontStyle=0;childLayout=stackLayout;horizontal=1;startSize=26;fillColor=none;horizontalStack=0;resizeParent=1;resizeParentMax=0;resizeLast=0;collapsible=1;marginBottom=0;" parent="1" vertex="1">
                    <mxGeometry x="-250" y="420" width="140" height="182" as="geometry"/>
                </mxCell>
                <mxCell id="njmQkS_udpOmSkrCVEzm-4" value="id: ID" style="text;strokeColor=none;fillColor=none;align=left;verticalAlign=top;spacingLeft=4;spacingRight=4;overflow=hidden;rotatable=0;points=[[0,0.5],[1,0.5]];portConstraint=eastwest;" parent="AIPdWYYq4T8G4I1ffe9C-43" vertex="1">
                    <mxGeometry y="26" width="140" height="26" as="geometry"/>
                </mxCell>
                <mxCell id="AIPdWYYq4T8G4I1ffe9C-44" value="name: string" style="text;strokeColor=none;fillColor=none;align=left;verticalAlign=top;spacingLeft=4;spacingRight=4;overflow=hidden;rotatable=0;points=[[0,0.5],[1,0.5]];portConstraint=eastwest;" parent="AIPdWYYq4T8G4I1ffe9C-43" vertex="1">
                    <mxGeometry y="52" width="140" height="26" as="geometry"/>
                </mxCell>
                <mxCell id="AIPdWYYq4T8G4I1ffe9C-45" value="fstName: string" style="text;strokeColor=none;fillColor=none;align=left;verticalAlign=top;spacingLeft=4;spacingRight=4;overflow=hidden;rotatable=0;points=[[0,0.5],[1,0.5]];portConstraint=eastwest;" parent="AIPdWYYq4T8G4I1ffe9C-43" vertex="1">
                    <mxGeometry y="78" width="140" height="26" as="geometry"/>
                </mxCell>
                <mxCell id="AIPdWYYq4T8G4I1ffe9C-46" value="nickname: string" style="text;strokeColor=none;fillColor=none;align=left;verticalAlign=top;spacingLeft=4;spacingRight=4;overflow=hidden;rotatable=0;points=[[0,0.5],[1,0.5]];portConstraint=eastwest;" parent="AIPdWYYq4T8G4I1ffe9C-43" vertex="1">
                    <mxGeometry y="104" width="140" height="26" as="geometry"/>
                </mxCell>
                <mxCell id="AIPdWYYq4T8G4I1ffe9C-47" value="password: string" style="text;strokeColor=none;fillColor=none;align=left;verticalAlign=top;spacingLeft=4;spacingRight=4;overflow=hidden;rotatable=0;points=[[0,0.5],[1,0.5]];portConstraint=eastwest;" parent="AIPdWYYq4T8G4I1ffe9C-43" vertex="1">
                    <mxGeometry y="130" width="140" height="26" as="geometry"/>
                </mxCell>
                <mxCell id="AIPdWYYq4T8G4I1ffe9C-48" value="wishlist: [Product]" style="text;strokeColor=none;fillColor=none;align=left;verticalAlign=top;spacingLeft=4;spacingRight=4;overflow=hidden;rotatable=0;points=[[0,0.5],[1,0.5]];portConstraint=eastwest;" parent="AIPdWYYq4T8G4I1ffe9C-43" vertex="1">
                    <mxGeometry y="156" width="140" height="26" as="geometry"/>
                </mxCell>
                <mxCell id="AIPdWYYq4T8G4I1ffe9C-49" value="Purchase" style="swimlane;fontStyle=0;childLayout=stackLayout;horizontal=1;startSize=26;fillColor=none;horizontalStack=0;resizeParent=1;resizeParentMax=0;resizeLast=0;collapsible=1;marginBottom=0;" parent="1" vertex="1">
                    <mxGeometry x="-250" y="640" width="140" height="156" as="geometry"/>
                </mxCell>
                <mxCell id="AIPdWYYq4T8G4I1ffe9C-50" value="order: [Product]" style="text;strokeColor=none;fillColor=none;align=left;verticalAlign=top;spacingLeft=4;spacingRight=4;overflow=hidden;rotatable=0;points=[[0,0.5],[1,0.5]];portConstraint=eastwest;" parent="AIPdWYYq4T8G4I1ffe9C-49" vertex="1">
                    <mxGeometry y="26" width="140" height="26" as="geometry"/>
                </mxCell>
                <mxCell id="njmQkS_udpOmSkrCVEzm-5" value="id: ID" style="text;strokeColor=none;fillColor=none;align=left;verticalAlign=top;spacingLeft=4;spacingRight=4;overflow=hidden;rotatable=0;points=[[0,0.5],[1,0.5]];portConstraint=eastwest;" parent="AIPdWYYq4T8G4I1ffe9C-49" vertex="1">
                    <mxGeometry y="52" width="140" height="26" as="geometry"/>
                </mxCell>
                <mxCell id="AIPdWYYq4T8G4I1ffe9C-51" value="buyer; Buyer" style="text;strokeColor=none;fillColor=none;align=left;verticalAlign=top;spacingLeft=4;spacingRight=4;overflow=hidden;rotatable=0;points=[[0,0.5],[1,0.5]];portConstraint=eastwest;" parent="AIPdWYYq4T8G4I1ffe9C-49" vertex="1">
                    <mxGeometry y="78" width="140" height="26" as="geometry"/>
                </mxCell>
                <mxCell id="AIPdWYYq4T8G4I1ffe9C-55" value="totalAmount: float" style="text;strokeColor=none;fillColor=none;align=left;verticalAlign=top;spacingLeft=4;spacingRight=4;overflow=hidden;rotatable=0;points=[[0,0.5],[1,0.5]];portConstraint=eastwest;" parent="AIPdWYYq4T8G4I1ffe9C-49" vertex="1">
                    <mxGeometry y="104" width="140" height="26" as="geometry"/>
                </mxCell>
                <mxCell id="AIPdWYYq4T8G4I1ffe9C-56" value="date: string" style="text;strokeColor=none;fillColor=none;align=left;verticalAlign=top;spacingLeft=4;spacingRight=4;overflow=hidden;rotatable=0;points=[[0,0.5],[1,0.5]];portConstraint=eastwest;" parent="AIPdWYYq4T8G4I1ffe9C-49" vertex="1">
                    <mxGeometry y="130" width="140" height="26" as="geometry"/>
                </mxCell>
                <mxCell id="njmQkS_udpOmSkrCVEzm-7" style="edgeStyle=orthogonalEdgeStyle;rounded=0;orthogonalLoop=1;jettySize=auto;html=1;exitX=0;exitY=0.5;exitDx=0;exitDy=0;entryX=1;entryY=0.5;entryDx=0;entryDy=0;" parent="1" source="AIPdWYYq4T8G4I1ffe9C-11" target="njmQkS_udpOmSkrCVEzm-3" edge="1">
                    <mxGeometry relative="1" as="geometry"/>
                </mxCell>
                <mxCell id="njmQkS_udpOmSkrCVEzm-8" style="edgeStyle=orthogonalEdgeStyle;rounded=0;orthogonalLoop=1;jettySize=auto;html=1;exitX=1;exitY=0.5;exitDx=0;exitDy=0;entryX=0;entryY=0.5;entryDx=0;entryDy=0;fillColor=#f8cecc;strokeColor=#b85450;" parent="1" source="AIPdWYYq4T8G4I1ffe9C-48" target="AIPdWYYq4T8G4I1ffe9C-2" edge="1">
                    <mxGeometry relative="1" as="geometry"/>
                </mxCell>
                <mxCell id="njmQkS_udpOmSkrCVEzm-9" style="edgeStyle=orthogonalEdgeStyle;rounded=0;orthogonalLoop=1;jettySize=auto;html=1;exitX=0;exitY=0.5;exitDx=0;exitDy=0;entryX=1;entryY=0.5;entryDx=0;entryDy=0;fillColor=#dae8fc;strokeColor=#6c8ebf;" parent="1" source="AIPdWYYq4T8G4I1ffe9C-39" target="njmQkS_udpOmSkrCVEzm-4" edge="1">
                    <mxGeometry relative="1" as="geometry"/>
                </mxCell>
                <mxCell id="njmQkS_udpOmSkrCVEzm-11" style="edgeStyle=orthogonalEdgeStyle;rounded=0;orthogonalLoop=1;jettySize=auto;html=1;exitX=1;exitY=0.5;exitDx=0;exitDy=0;entryX=0;entryY=0.5;entryDx=0;entryDy=0;fillColor=#f8cecc;strokeColor=#b85450;" parent="1" source="AIPdWYYq4T8G4I1ffe9C-50" target="AIPdWYYq4T8G4I1ffe9C-2" edge="1">
                    <mxGeometry relative="1" as="geometry"/>
                </mxCell>
                <mxCell id="njmQkS_udpOmSkrCVEzm-12" style="edgeStyle=orthogonalEdgeStyle;rounded=0;orthogonalLoop=1;jettySize=auto;html=1;exitX=1;exitY=0.5;exitDx=0;exitDy=0;entryX=1;entryY=0.5;entryDx=0;entryDy=0;fillColor=#dae8fc;strokeColor=#6c8ebf;" parent="1" source="AIPdWYYq4T8G4I1ffe9C-51" target="njmQkS_udpOmSkrCVEzm-4" edge="1">
                    <mxGeometry relative="1" as="geometry">
                        <Array as="points">
                            <mxPoint x="-90" y="731"/>
                            <mxPoint x="-90" y="459"/>
                        </Array>
                    </mxGeometry>
                </mxCell>
                <mxCell id="njmQkS_udpOmSkrCVEzm-13" style="edgeStyle=orthogonalEdgeStyle;rounded=0;orthogonalLoop=1;jettySize=auto;html=1;exitX=0;exitY=0.5;exitDx=0;exitDy=0;entryX=1;entryY=0.5;entryDx=0;entryDy=0;" parent="1" source="njmQkS_udpOmSkrCVEzm-10" target="AIPdWYYq4T8G4I1ffe9C-2" edge="1">
                    <mxGeometry relative="1" as="geometry"/>
                </mxCell>
                <mxCell id="njmQkS_udpOmSkrCVEzm-14" style="edgeStyle=orthogonalEdgeStyle;rounded=0;orthogonalLoop=1;jettySize=auto;html=1;exitX=1;exitY=0.5;exitDx=0;exitDy=0;entryX=0;entryY=0.5;entryDx=0;entryDy=0;" parent="1" source="AIPdWYYq4T8G4I1ffe9C-24" target="AIPdWYYq4T8G4I1ffe9C-30" edge="1">
                    <mxGeometry relative="1" as="geometry"/>
                </mxCell>
                <mxCell id="tGBcgF5zEhU3mlBbZxo8-3" value="1..*" style="text;html=1;strokeColor=none;fillColor=none;align=center;verticalAlign=middle;whiteSpace=wrap;rounded=0;" parent="1" vertex="1">
                    <mxGeometry x="400" y="430" width="60" height="30" as="geometry"/>
                </mxCell>
                <mxCell id="tGBcgF5zEhU3mlBbZxo8-4" value="1..*" style="text;html=1;strokeColor=none;fillColor=none;align=center;verticalAlign=middle;whiteSpace=wrap;rounded=0;" parent="1" vertex="1">
                    <mxGeometry x="480" y="560" width="60" height="30" as="geometry"/>
                </mxCell>
                <mxCell id="tGBcgF5zEhU3mlBbZxo8-5" value="1..*" style="text;html=1;strokeColor=none;fillColor=none;align=center;verticalAlign=middle;whiteSpace=wrap;rounded=0;" parent="1" vertex="1">
                    <mxGeometry x="140" y="640" width="60" height="30" as="geometry"/>
                </mxCell>
                <mxCell id="tGBcgF5zEhU3mlBbZxo8-6" value="1" style="text;html=1;strokeColor=none;fillColor=none;align=center;verticalAlign=middle;whiteSpace=wrap;rounded=0;" parent="1" vertex="1">
                    <mxGeometry x="60" y="780" width="60" height="30" as="geometry"/>
                </mxCell>
                <mxCell id="tGBcgF5zEhU3mlBbZxo8-7" value="1..*" style="text;html=1;strokeColor=none;fillColor=none;align=center;verticalAlign=middle;whiteSpace=wrap;rounded=0;" parent="1" vertex="1">
                    <mxGeometry x="120" y="430" width="60" height="30" as="geometry"/>
                </mxCell>
                <mxCell id="tGBcgF5zEhU3mlBbZxo8-9" value="1" style="text;html=1;strokeColor=none;fillColor=none;align=center;verticalAlign=middle;whiteSpace=wrap;rounded=0;" parent="1" vertex="1">
                    <mxGeometry x="-130" y="650" width="60" height="30" as="geometry"/>
                </mxCell>
                <mxCell id="tGBcgF5zEhU3mlBbZxo8-10" value="1" style="text;html=1;strokeColor=none;fillColor=none;align=center;verticalAlign=middle;whiteSpace=wrap;rounded=0;" parent="1" vertex="1">
                    <mxGeometry x="-130" y="703" width="60" height="30" as="geometry"/>
                </mxCell>
                <mxCell id="tGBcgF5zEhU3mlBbZxo8-11" value="1" style="text;html=1;strokeColor=none;fillColor=none;align=center;verticalAlign=middle;whiteSpace=wrap;rounded=0;" parent="1" vertex="1">
                    <mxGeometry x="-130" y="430" width="60" height="30" as="geometry"/>
                </mxCell>
                <mxCell id="tGBcgF5zEhU3mlBbZxo8-12" value="1" style="text;html=1;strokeColor=none;fillColor=none;align=center;verticalAlign=middle;whiteSpace=wrap;rounded=0;" parent="1" vertex="1">
                    <mxGeometry x="-110" y="810" width="60" height="30" as="geometry"/>
                </mxCell>
                <mxCell id="tGBcgF5zEhU3mlBbZxo8-13" value="1" style="text;html=1;strokeColor=none;fillColor=none;align=center;verticalAlign=middle;whiteSpace=wrap;rounded=0;" parent="1" vertex="1">
                    <mxGeometry x="-130" y="560" width="60" height="30" as="geometry"/>
                </mxCell>
            </root>
        </mxGraphModel>
    </diagram>
</mxfile>